<?xml version="1.0" encoding="UTF-8"?>
<svg id="Layer_1" data-name="Layer 1" xmlns="http://www.w3.org/2000/svg" viewBox="0 0 48 48">
  <path d="M41,25.4v13.6c0,2.76-2.24,5-5,5h-6v-14c0-1.1-.9-2-2-2h-8c-1.1,0-2,.9-2,2v14h-6c-2.76,0-5-2.24-5-5v-13.6c.19-.09,.37-.2,.55-.32L24,14.11l16.45,10.97c.18,.12,.36,.22,.55,.32Z"/>
  <path d="M15,6.9l-7,4.66V7c0-1.1,.9-2,2-2h3c1.07,0,1.94,.84,2,1.9Z"/>
  <path d="M43.498,24.002h0c-.691,0-1.362-.204-1.939-.588L24,11.708,6.441,23.414c-1.604,1.071-3.782,.637-4.854-.971-.519-.778-.704-1.711-.52-2.628s.713-1.707,1.491-2.226L22.059,4.59c1.18-.786,2.703-.786,3.883,0l19.5,13c.778,.519,1.307,1.309,1.491,2.226s-.001,1.85-.52,2.628c-.65,.976-1.739,1.559-2.914,1.559Z"/>
</svg>